<svg width="134" height="33" viewBox="0 0 134 33" fill="none" xmlns="http://www.w3.org/2000/svg">
<path d="M119.688 10.556V7.09875H133.624V10.556H128.559V25.8588H124.727V10.556H119.688Z" fill="#1A1A1A"/>
<path d="M107.808 7.09875H118.662V10.4488H111.506V14.6564H118.394V17.8456H111.506V25.8588H107.808V7.09875Z" fill="#1A1A1A"/>
<path d="M84.8125 16.4788C84.8125 10.7704 89.0737 6.72363 94.7285 6.72363C100.41 6.72363 104.645 10.7704 104.645 16.4788C104.645 22.1872 100.464 26.368 94.7285 26.368C88.9665 26.368 84.8125 22.1872 84.8125 16.4788ZM88.8593 16.4788C88.8593 20.07 91.2445 22.6696 94.7285 22.6696C98.1857 22.6696 100.571 20.07 100.571 16.4788C100.571 12.8876 98.2393 10.288 94.7285 10.288C91.2445 10.288 88.8593 12.8876 88.8593 16.4788Z" fill="#1A1A1A"/>
<path d="M71.2238 19.5608C72.403 21.678 73.9306 23.018 75.9406 23.018C77.495 23.018 78.5402 22.1604 78.5402 20.8204C78.5402 19.0784 77.2002 18.5156 74.6542 17.5508C72.805 16.8808 69.6694 15.4872 69.6694 11.9228C69.6694 8.73363 72.3762 6.72363 75.8602 6.72363C79.3978 6.72363 81.515 8.81403 82.4798 10.7704L79.4782 12.432C78.701 11.0652 77.5486 9.99323 75.8602 9.99323C74.3594 9.99323 73.609 10.7972 73.609 11.7352C73.609 13.1288 74.9758 13.9328 77.8166 14.8976C80.2286 15.7552 82.5602 17.4168 82.5602 20.606C82.5602 24.2508 79.371 26.368 75.9942 26.368C72.537 26.368 69.6962 24.1436 68.4902 21.4904L71.2238 19.5608Z" fill="#1A1A1A"/>
<path d="M63.0126 25.8588L61.0562 21.5976H54.5974L52.641 25.8588H48.3262L57.8402 6L67.3542 25.8588H63.0126ZM57.8402 13.1824L55.5086 18.5692H60.1718L57.8402 13.1824Z" fill="#1A1A1A"/>
<path d="M33.5166 7.09875H39.8146C44.2366 7.09875 46.8094 9.51076 46.8094 13.0752C46.8094 15.7284 45.389 17.7384 42.843 18.596L47.935 25.8588H43.4058L39.0106 19.0516H37.349V25.8588H33.5166V7.09875ZM39.5734 10.3684H37.349V15.9964H39.5734C41.5834 15.9964 42.8698 14.978 42.8698 13.1824C42.8698 11.3868 41.5834 10.3684 39.5734 10.3684Z" fill="#1A1A1A"/>
<path d="M26.9403 25.8588L24.9839 21.5976H18.5251L16.5687 25.8588H12.2539L21.7679 6L31.2819 25.8588H26.9403ZM21.7679 13.1824L19.4363 18.5692H24.0995L21.7679 13.1824Z" fill="#1A1A1A"/>
<path d="M2.0636 27.8956C2.546 28.4316 3.35 28.8068 4.2076 28.8068C5.0116 28.8068 5.9764 28.2172 5.9764 26.5556V7.09875H9.9964V27.3596C9.9964 30.7364 7.5576 32.1032 4.4756 32.1032C2.5996 32.1032 0.8576 31.2992 0 30.656L2.0636 27.8956Z" fill="#1A1A1A"/>
</svg>
